<svg xmlns="http://www.w3.org/2000/svg" width="12" height="20"><path id="fa-mobile-phone" d="M236.25 5885a1.25 1.25 0 11-1.25-1.25 1.252 1.252 0 011.25 1.25zm3.25-2.5a.511.511 0 01-.5.5h-8a.511.511 0 01-.5-.5v-11a.511.511 0 01.5-.5h8a.511.511 0 01.5.5v11zm-3-13.25a.247.247 0 01-.25.25h-2.5a.25.25 0 010-.5h2.5a.247.247 0 01.25.25zm4.5-.25a2.016 2.016 0 00-2-2h-8a2.016 2.016 0 00-2 2v16a2.016 2.016 0 002 2h8a2.016 2.016 0 002-2v-16z" transform="translate(-229 -5867)" fill="#555" fill-rule="evenodd"/></svg>