<svg xmlns="http://www.w3.org/2000/svg" width="8.406" height="16"><path id="Facebook_Logo" data-name="Facebook Logo" d="M323.1 1987h-2.018a3.6 3.6 0 00-3.732 3.94v1.81h-2.03a.325.325 0 00-.317.33v2.63a.325.325 0 00.317.33h2.03v6.63a.325.325 0 00.317.33h2.647a.325.325 0 00.318-.33v-6.63H323a.325.325 0 00.317-.33v-2.63a.33.33 0 00-.317-.33h-2.373v-1.54a.912.912 0 011.108-1.11h1.36a.325.325 0 00.317-.33v-2.44a.325.325 0 00-.312-.33z" transform="translate(-315 -1987)" fill="#fff" fill-rule="evenodd"/></svg>