<svg xmlns="http://www.w3.org/2000/svg" width="37" height="37"><circle cx="18.5" cy="18.5" r="17.5" fill="none" stroke="#fff" stroke-width="2"/><path id="fa-twitter" d="M735 6278.42a6.613 6.613 0 01-1.888.47 3.036 3.036 0 001.441-1.67 6.951 6.951 0 01-2.081.74 3.409 3.409 0 00-2.4-.96 3.16 3.16 0 00-3.279 3.03 3.115 3.115 0 00.081.69 9.581 9.581 0 01-6.761-3.17 2.839 2.839 0 00-.447 1.53 2.966 2.966 0 001.462 2.52 3.6 3.6 0 01-1.482-.38v.04a3.1 3.1 0 002.629 2.97 4.068 4.068 0 01-.863.1 4.192 4.192 0 01-.619-.05 3.252 3.252 0 003.066 2.1 7.139 7.139 0 01-4.863 1.26 9.858 9.858 0 005.035 1.36 8.907 8.907 0 009.33-8.62c0-.13 0-.26-.01-.39a6.775 6.775 0 001.649-1.57z" transform="translate(-708 -6265)" fill="#fff" fill-rule="evenodd"/></svg>