<svg xmlns="http://www.w3.org/2000/svg" width="15.969" height="15.16"><path id="Google_Plus_Logo" data-name="Google Plus Logo" d="M373.585 1990.78a3.007 3.007 0 001.322 2.76 3.834 3.834 0 001.986.51h.248a2.386 2.386 0 00.526 1.71h-.03c-1.15 0-4.9.24-4.9 3.21 0 3.03 3.445 3.19 4.136 3.19h.227a6.608 6.608 0 002.655-.56 3.414 3.414 0 002.081-3.34 4.082 4.082 0 00-1.846-3.09 1.985 1.985 0 01-.887-1.09 1.448 1.448 0 01.68-.93 3.272 3.272 0 001.194-2.71c0-1.26-.169-2.1-1.207-2.63a2.964 2.964 0 01.68-.12c.563-.08 1.386-.16 1.386-.6v-.09h-4.1c-.044 0-4.151.15-4.151 3.78zm6.622 7.76c.078 1.21-1 2.11-2.606 2.22-1.637.12-2.984-.6-3.063-1.81a1.958 1.958 0 01.745-1.6 3.491 3.491 0 012.033-.8 2.555 2.555 0 01.276-.01 2.348 2.348 0 012.615 2zm-1.071-8.59c.4 1.37-.206 2.8-1.174 3.06a1.314 1.314 0 01-.343.04 2.511 2.511 0 01-2.092-2.06 2.88 2.88 0 01.042-1.82 1.6 1.6 0 011.037-1.05 1.323 1.323 0 01.343-.05c1.071 0 1.76.43 2.187 1.88zm6.911 2.98v-2.59h-1.7v2.59h-2.676v1.63h2.676v2.59h1.7v-2.59h2.677v-1.63h-2.677z" transform="translate(-372.75 -1987)" fill="#fff" fill-rule="evenodd"/></svg>