<svg xmlns="http://www.w3.org/2000/svg" width="8" height="14" viewBox="0 0 8 14">
  <defs>
    <style>
      .cls-1 {
        fill: #ddd;
        fill-rule: evenodd;
      }
    </style>
  </defs>
  <path id="fa-angle-left" class="cls-1" d="M1347,1921.84a0.448,0.448,0,0,0,.14.32l0.68,0.7a0.436,0.436,0,0,0,.64,0l6.4-6.54a0.436,0.436,0,0,0,0-.64l-6.4-6.54a0.436,0.436,0,0,0-.64,0l-0.68.7a0.466,0.466,0,0,0-.14.32,0.471,0.471,0,0,0,.14.33l5.4,5.51-5.4,5.51A0.471,0.471,0,0,0,1347,1921.84Z" transform="translate(-1347 -1909)"/>
</svg>
